<?xml version="1.0" encoding="UTF-8" standalone="no"?>
<svg
   xmlns:dc="http://purl.org/dc/elements/1.1/"
   xmlns:cc="http://creativecommons.org/ns#"
   xmlns:rdf="http://www.w3.org/1999/02/22-rdf-syntax-ns#"
   xmlns:svg="http://www.w3.org/2000/svg"
   xmlns="http://www.w3.org/2000/svg"
   xmlns:sodipodi="http://sodipodi.sourceforge.net/DTD/sodipodi-0.dtd"
   xmlns:inkscape="http://www.inkscape.org/namespaces/inkscape"
   width="640"
   height="480"
   id="svg2"
   version="1.1"
   inkscape:version="0.48.3.1 r9886"
   sodipodi:docname="logo.svg">
  <metadata
     id="metadata17">
    <rdf:RDF>
      <cc:Work
         rdf:about="">
        <dc:format>image/svg+xml</dc:format>
        <dc:type
           rdf:resource="http://purl.org/dc/dcmitype/StillImage" />
        <dc:title></dc:title>
      </cc:Work>
    </rdf:RDF>
  </metadata>
  <defs
     id="defs15" />
  <sodipodi:namedview
     pagecolor="#ffffff"
     bordercolor="#666666"
     borderopacity="1"
     objecttolerance="10"
     gridtolerance="10"
     guidetolerance="10"
     inkscape:pageopacity="0"
     inkscape:pageshadow="2"
     inkscape:window-width="1280"
     inkscape:window-height="657"
     id="namedview13"
     showgrid="false"
     inkscape:zoom="0.49166667"
     inkscape:cx="320"
     inkscape:cy="240"
     inkscape:window-x="-8"
     inkscape:window-y="-8"
     inkscape:window-maximized="1"
     inkscape:current-layer="svg2" />
  <!-- Created with SVG-edit - http://svg-edit.googlecode.com/ -->
  <g
     id="g4"
     transform="matrix(2.1786114,0,0,2.8114407,-368.1544,-282.68008)">
    <title
       id="title6">Layer 1</title>
    <ellipse
       ry="64"
       rx="175"
       id="svg_1"
       cy="183"
       cx="311"
       d="m 486,183 c 0,35.34622 -78.35017,64 -175,64 -96.64983,0 -175,-28.65378 -175,-64 0,-35.34622 78.35017,-64 175,-64 96.64983,0 175,28.65378 175,64 z"
       sodipodi:cx="311"
       sodipodi:cy="183"
       sodipodi:rx="175"
       sodipodi:ry="64"
       style="fill:#007fff;stroke:#000000;stroke-width:0" />
    <text
       stroke-linejoin="null"
       stroke-linecap="null"
       x="358.77063"
       y="179.14836"
       id="svg_2"
       font-size="24"
       xml:space="preserve"
       transform="matrix(3.6454513,0,0,2.4987746,-993.86022,-246.66117)"
       style="font-size:24px;text-anchor:middle;fill:#ffffff;stroke:#000000;stroke-width:0;stroke-dasharray:none;font-family:serif">AJRL</text>
    <circle
       stroke-linejoin="null"
       stroke-linecap="null"
       cx="471"
       cy="179"
       r="43.266621"
       id="svg_5"
       d="m 514.26662,179 c 0,23.89549 -19.37113,43.26662 -43.26662,43.26662 -23.89549,0 -43.26662,-19.37113 -43.26662,-43.26662 0,-23.89549 19.37113,-43.26662 43.26662,-43.26662 23.89549,0 43.26662,19.37113 43.26662,43.26662 z"
       sodipodi:cx="471"
       sodipodi:cy="179"
       sodipodi:rx="43.266621"
       sodipodi:ry="43.266621"
       style="fill:#ffffff;stroke:#000000;stroke-width:0;stroke-dasharray:none" />
    <circle
       stroke-linejoin="null"
       stroke-linecap="null"
       cx="152"
       cy="183"
       r="43.266621"
       d="m 195.26662,183 c 0,23.89549 -19.37113,43.26662 -43.26662,43.26662 -23.89549,0 -43.26662,-19.37113 -43.26662,-43.26662 0,-23.89549 19.37113,-43.26662 43.26662,-43.26662 23.89549,0 43.26662,19.37113 43.26662,43.26662 z"
       sodipodi:cx="152"
       sodipodi:cy="183"
       sodipodi:rx="43.266621"
       sodipodi:ry="43.266621"
       style="fill:#ffffff;stroke:#000000;stroke-width:0;stroke-dasharray:none" />
    <path
       id="svg_4"
       d="m 213,210.40677 c 136.37615,2.22227 272.75231,-19.25963 136.37615,2.22227 C 213,234.11094 350.90847,243 350.90847,243 350.90847,243 213,210.40677 213,210.40677 z"
       stroke-linecap="null"
       stroke-linejoin="null"
       inkscape:connector-curvature="0"
       style="fill:#ffffff;stroke:#000000;stroke-width:0;stroke-dasharray:none" />
  </g>
</svg>
